<svg width="25" height="14" fill="none" xmlns="http://www.w3.org/2000/svg"><path fill-rule="evenodd" clip-rule="evenodd" d="M24.1 1c.2-.6 0-1-.8-1h-2.6c-.7 0-1 .3-1.1.7 0 0-1.4 3.2-3.3 5.3-.6.6-.9.8-1.2.8-.2 0-.4-.2-.4-.7V.9c0-.6-.2-.9-.8-.9h-4c-.5 0-.8.3-.8.6 0 .6 1 .8 1 2.5V7c0 .8 0 1-.4 1-.9 0-3-3.2-4.3-6.9-.3-.7-.5-1-1.2-1H1.6C.8 0 .6.3.6.7c0 .7 1 4.1 4.2 8.6 2.2 3 5.2 4.7 8 4.7 1.7 0 1.9-.4 1.9-1v-2.3c0-.8.2-.9.7-.9.4 0 1 .2 2.6 1.7 1.8 1.7 2 2.5 3 2.5h2.7c.7 0 1.1-.4 1-1.1-.3-.7-1.2-1.8-2.3-3L20.6 8c-.4-.5-.3-.7 0-1.1 0 0 3.2-4.4 3.5-6Z" fill="#83B3D3"/></svg>